<svg width="39" height="41" viewBox="0 0 39 41" fill="none" xmlns="http://www.w3.org/2000/svg">
<path d="M11.9414 5.55651C10.8396 5.55651 9.74717 5.60927 8.67324 5.81144C7.77523 5.97849 6.93276 6.28624 6.42356 7.05997C6.21061 7.38525 6.06246 7.78088 5.99766 8.15898C5.75695 9.59209 6.20136 10.8406 7.22901 11.922C7.96967 12.6957 8.83065 13.3023 9.83054 13.7331C10.099 13.8474 10.349 13.9793 10.6175 14.1024C10.96 14.2607 11.1267 14.542 11.0618 14.9025C10.96 15.4125 10.8396 15.9224 10.5341 16.3708C10.0713 17.0478 9.4139 17.4874 8.63622 17.7863C7.72895 18.1292 6.84939 18.1204 5.94213 17.7511C5.07187 17.3907 4.23864 16.9686 3.47948 16.4236C2.50738 15.7202 1.69268 14.8761 1.0909 13.8563C0.28545 12.5111 -0.057101 11.0516 0.00770463 9.51292C0.0447405 8.65131 0.22064 7.81605 0.498385 6.99839C0.739095 6.29501 1.06313 5.64439 1.46122 5.01138C2.39629 3.50793 3.66464 2.32978 5.23851 1.45057C6.7013 0.641699 8.26592 0.202095 9.94161 0.193302C12.395 0.175714 14.8484 0.175714 17.3018 0.193302C18.7275 0.202095 20.1533 0.272428 21.579 0.31639C22.9862 0.360353 24.4027 0.421897 25.8099 0.439479C28.2726 0.465854 30.7352 0.492235 33.1886 0.465854C34.2996 0.448273 35.4198 0.31639 36.5308 0.210883C36.8548 0.184508 37.1696 0.0965883 37.4844 0.035044C38.0491 -0.0704619 38.3268 0.0526257 38.5676 0.536192C39.2249 1.83743 39.1138 3.11228 38.3639 4.33439C37.6325 5.52133 36.5123 6.25107 35.1976 6.74345C34.0311 7.18302 32.809 7.30614 31.5777 7.38525C30.1242 7.48195 28.68 7.39402 27.2357 7.22702C26.7357 7.16544 26.6339 7.27096 26.5876 7.74571C26.495 8.61614 26.3747 9.48657 26.2729 10.3658C26.1617 11.2274 26.0599 12.0978 25.958 12.9595C25.9303 13.1705 25.9303 13.3815 25.884 13.5925C25.8377 13.8123 25.9303 13.8738 26.1432 13.9002C26.7357 13.9793 27.3283 13.9442 27.9208 13.8914C29.1706 13.7859 30.3557 13.4518 31.5314 13.0738C31.9203 12.9506 32.3091 12.8276 32.7072 12.7484C32.846 12.7221 33.0405 12.8012 33.1609 12.8891C33.7719 13.3551 34.0311 13.9793 34.0589 14.7091C34.0959 15.6586 33.9107 16.5467 33.346 17.3467C32.9294 17.9446 32.3647 18.393 31.6981 18.7271C30.439 19.3513 29.078 19.5711 27.6708 19.5711C27.1246 19.5711 26.5784 19.5448 26.0322 19.5272C25.671 19.5184 25.6248 19.5624 25.597 19.9052C25.5507 20.4151 25.5137 20.9251 25.4488 21.435C25.2545 23.0968 25.0693 24.7497 24.8378 26.4114C24.6434 27.8533 24.3471 29.2864 23.9028 30.6843C23.6806 31.3789 23.4676 32.0735 23.1992 32.7505C22.8011 33.7792 22.2548 34.7375 21.6253 35.6519C20.7458 36.9267 19.6719 38.0433 18.385 38.9665C17.1074 39.8721 15.7094 40.5579 14.1263 40.848C13.0986 41.0327 12.0617 41.0679 11.0433 40.848C9.48795 40.4964 8.14553 39.7842 7.19198 38.5181C6.66427 37.8148 6.29392 37.041 6.07171 36.197C5.70141 34.7991 5.70141 33.4011 6.00692 31.9944C6.2754 30.7635 6.74758 29.6029 7.3771 28.4863C8.06223 27.273 8.89545 26.1652 9.83054 25.1189C10.7471 24.0903 11.7469 23.1319 12.8394 22.2703C13.8023 21.523 14.7928 20.802 15.7742 20.0635C16.1908 19.7558 16.6074 19.448 17.0148 19.1227C17.2277 18.9557 17.2184 18.9205 17.0333 18.7271C16.7648 18.4458 16.4778 18.1819 16.2371 17.8743C15.6909 17.1797 15.4594 15.9224 16.0149 15.1223C16.3574 14.6212 16.8389 14.2783 17.4221 14.0761C17.5703 14.0233 17.7184 13.9881 17.8665 13.953C18.2924 13.8474 18.4313 13.7068 18.4775 13.2936C18.6072 12.1154 18.8757 10.9636 19.246 9.83826C19.533 8.95906 19.8848 8.0974 20.2088 7.23579C20.2829 7.03356 20.3847 6.83133 20.4681 6.62911C20.5236 6.48847 20.4958 6.39176 20.3106 6.36536C20.0792 6.339 19.857 6.30383 19.6256 6.27742C18.4313 6.12795 17.2463 5.95214 16.0519 5.83785C14.691 5.69715 13.3208 5.60927 11.9506 5.49492C11.9506 5.51251 11.9414 5.5301 11.9414 5.55651ZM17.5888 24.0639C17.561 24.0463 17.524 24.0375 17.4962 24.0199C17.1999 24.2837 16.8944 24.5299 16.6167 24.8112C15.6353 25.8223 14.7373 26.895 13.9226 28.0379C13.0616 29.2424 12.2932 30.5085 11.7562 31.8801C11.4785 32.5835 11.2563 33.3044 11.3118 34.0605C11.3858 34.9925 11.8117 35.564 12.8672 35.8365C13.3116 35.9509 13.7281 35.8102 14.0892 35.5728C14.7095 35.1684 15.0891 34.5704 15.4132 33.9374C15.8112 33.1549 16.126 32.3461 16.3297 31.502C16.6167 30.2975 16.9037 29.093 17.1166 27.8709C17.311 26.7807 17.4036 25.6817 17.5425 24.5826C17.5703 24.4156 17.5795 24.2397 17.5888 24.0639Z" fill="#110A01"/>
</svg>
