<svg width="24" height="24" viewBox="0 0 24 24" fill="none" xmlns="http://www.w3.org/2000/svg">
<path d="M12 6.6L13.2288 5.1936C13.9821 4.17369 15.0725 3.45389 16.3064 3.16212C17.5403 2.87034 18.8377 3.02549 19.968 3.6C20.8316 4.07594 21.5506 4.7763 22.0491 5.6271C22.5476 6.4779 22.807 7.44755 22.8 8.4336C22.8006 9.23742 22.6257 10.0317 22.2874 10.7609C21.9492 11.4901 21.4557 12.1366 20.8416 12.6552L12.5952 20.748C12.5179 20.8293 12.4248 20.8941 12.3216 20.9383C12.2185 20.9826 12.1074 21.0054 11.9952 21.0054C11.883 21.0054 11.7719 20.9826 11.6688 20.9383C11.5656 20.8941 11.4725 20.8293 11.3952 20.748L3.1584 12.6552C2.54428 12.1366 2.05084 11.4901 1.71257 10.7609C1.3743 10.0317 1.19937 9.23742 1.2 8.4336C1.19296 7.44755 1.45239 6.4779 1.95087 5.6271C2.44935 4.7763 3.16838 4.07594 4.032 3.6C5.1615 3.02475 6.45833 2.86846 7.69215 3.1589C8.92597 3.44934 10.0169 4.16771 10.7712 5.1864L12 6.6Z" stroke="url(#paint0_linear_502_3736)" stroke-width="2.4" stroke-linecap="round" stroke-linejoin="round"/>
<defs>
<linearGradient id="paint0_linear_502_3736" x1="2.18478" y1="23.6705" x2="23.173" y2="22.8304" gradientUnits="userSpaceOnUse">
<stop stop-color="#F9BE6F"/>
<stop offset="1" stop-color="#FFD393"/>
</linearGradient>
</defs>
</svg>
