<svg width="24" height="24" viewBox="0 0 24 24" fill="none" xmlns="http://www.w3.org/2000/svg">
<g clip-path="url(#clip0_502_3752)">
<path d="M10.344 2.10721C10.5217 1.82923 10.7666 1.60047 11.056 1.44202C11.3454 1.28356 11.6701 1.2005 12 1.2005C12.3299 1.2005 12.6546 1.28356 12.944 1.44202C13.2334 1.60047 13.4783 1.82923 13.656 2.10721L16.8816 7.20001L21.0888 7.72081C21.4375 7.76263 21.7685 7.89805 22.0465 8.11269C22.3245 8.32734 22.5393 8.61321 22.668 8.94001C22.7942 9.2653 22.8294 9.61883 22.7698 9.96261C22.7101 10.3064 22.558 10.6274 22.3296 10.8912L18.8352 14.9328L19.9608 20.4912C20.0335 20.853 20.0005 21.2281 19.8655 21.5716C19.7306 21.9151 19.4995 22.2124 19.2 22.428C18.8983 22.6456 18.5412 22.7733 18.1699 22.7962C17.7987 22.8192 17.4285 22.7364 17.1024 22.5576L12 19.7592L6.9024 22.56C6.57547 22.7395 6.20427 22.8224 5.83205 22.799C5.45983 22.7756 5.10191 22.647 4.8 22.428C4.49959 22.213 4.26758 21.916 4.13178 21.5724C3.99598 21.2289 3.96217 20.8535 4.0344 20.4912L5.16 14.9328L1.68 10.9008C1.45162 10.637 1.29945 10.316 1.23983 9.97221C1.1802 9.62843 1.21539 9.2749 1.3416 8.94961C1.47032 8.62281 1.68509 8.33694 1.96311 8.12229C2.24113 7.90765 2.57206 7.77223 2.9208 7.73041L7.1184 7.20001L10.344 2.10721Z" stroke="url(#paint0_linear_502_3752)" stroke-width="2.4" stroke-linecap="round" stroke-linejoin="round"/>
</g>
<defs>
<linearGradient id="paint0_linear_502_3752" x1="2.19587" y1="26.0032" x2="23.1809" y2="25.3042" gradientUnits="userSpaceOnUse">
<stop stop-color="#F9BE6F"/>
<stop offset="1" stop-color="#FFD393"/>
</linearGradient>
<clipPath id="clip0_502_3752">
<rect width="24" height="24" fill="white"/>
</clipPath>
</defs>
</svg>
